<svg xmlns="http://www.w3.org/2000/svg" viewBox="0 0 335.27 335.26"><defs></defs><title>資產 1</title><g id="圖層_2" data-name="圖層 2"><g id="圖層_1-2" data-name="圖層 1"><path d="M204.63,132.51a47.13,47.13,0,1,0-74,0c-24.69,17.92-26.18,43.65-26.18,51.2V207.8a15,15,0,0,0,15,15h96.4a15,15,0,0,0,15-15V183.7A63.14,63.14,0,0,0,204.63,132.51Zm-37-46.28a17.14,17.14,0,1,1-17.13,17.14A17.16,17.16,0,0,1,167.63,86.23Zm33.2,106.57h-66.4v-9.12a33.2,33.2,0,0,1,66.4,0Z"/><path d="M280.1,0H55.16A55.23,55.23,0,0,0,0,55.17v265.1a15,15,0,0,0,25.61,10.6l43.8-43.8H280.1a55.16,55.16,0,0,0,55.17-55.17V55.17A55.23,55.23,0,0,0,280.1,0Zm25.17,231.9a25,25,0,0,1-7.37,17.79,25.36,25.36,0,0,1-17.8,7.38H63.2a15,15,0,0,0-10.61,4.39L30,284.05V55.17A25.19,25.19,0,0,1,55.16,30H280.1a25.2,25.2,0,0,1,25.17,25.17Z"/></g></g></svg>