<svg xmlns="http://www.w3.org/2000/svg" viewBox="0 0 192 320"><defs></defs><title>資產 1</title><g id="圖層_2" data-name="圖層 2"><g id="Capa_1" data-name="Capa 1"><path d="M181.33,0H10.67A10.67,10.67,0,0,0,0,10.67V309.33A10.67,10.67,0,0,0,10.67,320H181.33A10.67,10.67,0,0,0,192,309.33V10.67A10.67,10.67,0,0,0,181.33,0ZM128,298.67H64V277.33h64Zm42.67,0H149.33v-32A10.67,10.67,0,0,0,138.67,256H53.33a10.67,10.67,0,0,0-10.66,10.67v32H21.33V21.33H170.67Z"/><rect x="42.67" y="42.67" width="21.33" height="192"/><rect class="cls-1" x="85.33" y="42.67" width="21.33" height="192"/><rect x="128" y="42.67" width="21.33" height="192"/></g></g></svg>