<svg xmlns="http://www.w3.org/2000/svg" viewBox="0 0 512 390"><defs></defs><title>資產 6</title><g id="圖層_2" data-name="圖層 2"><g id="Capa_1" data-name="Capa 1"><path d="M497,180H452a15,15,0,0,0,0,30h45a15,15,0,0,0,0-30Z"/><path d="M477.61,274.39l-30-30a15,15,0,0,0-21.22,21.22l30,30a15,15,0,0,0,21.22-21.22Z"/><path d="M477.61,94.39a15,15,0,0,0-21.22,0l-30,30a15,15,0,0,0,21.22,21.22l30-30A15,15,0,0,0,477.61,94.39Z"/><path d="M347,0a45.08,45.08,0,0,0-44.5,38.28L288.82,52C265,75.78,229.93,90,195,90H105a45.06,45.06,0,0,0-42.42,30H60a60,60,0,0,0,0,120h2.58A45.25,45.25,0,0,0,90,267.42V345a45,45,0,0,0,90,0V270h15c34.93,0,70,14.22,93.82,38l13.68,13.69A45,45,0,0,0,392,315V45A45.05,45.05,0,0,0,347,0ZM60,210a30,30,0,0,1,0-60Zm90,135a15,15,0,0,1-30,0V270h30Zm30-105H105a15,15,0,0,1-15-15V135a15,15,0,0,1,15-15h75Zm122,39.35c-25.34-21.94-57.92-35.56-92.1-38.67V119.32c34.18-3.11,66.76-16.73,92.1-38.67ZM362,315a15,15,0,0,1-15,15h0a15,15,0,0,1-15-15V45a15,15,0,0,1,30,0Z"/></g></g></svg>