<svg xmlns="http://www.w3.org/2000/svg" viewBox="0 0 116.26 116.1"><defs></defs><title>資產 1</title><g id="圖層_2" data-name="圖層 2"><g id="圖層_1-2" data-name="圖層 1"><path d="M102.66,30.4a4,4,0,0,0-4-3.4h-23V17.6a17.6,17.6,0,1,0-35.2,0V27h-23a4,4,0,0,0-4,3.4l-13.4,81a3.93,3.93,0,0,0,.9,3.3,4.1,4.1,0,0,0,3.1,1.4h108.1a4.06,4.06,0,0,0,4.1-4.1,5.07,5.07,0,0,0-.2-1.3Zm-54-12.8a9.4,9.4,0,1,1,18.8,0V27H48.66ZM8.86,108,21,35.2h19.5V58.1a4.1,4.1,0,1,0,8.2,0V35.2h18.8V58.1a4.1,4.1,0,1,0,8.2,0V35.2h19.5l12.1,72.8Z"/></g></g></svg>