<svg xmlns="http://www.w3.org/2000/svg" viewBox="0 0 412.95 412.95"><defs></defs><title>5</title><g id="圖層_2" data-name="圖層 2"><g id="圖層_1-2" data-name="圖層 1"><path d="M0,221V192c.28-1.08.65-2.13.83-3.22,2.11-12.46,3.52-25.07,6.44-37.33,4-16.87,11-32.71,19.63-47.77A206.74,206.74,0,0,1,74.07,47.4a200.79,200.79,0,0,1,51.25-31.28A193.68,193.68,0,0,1,171.61,2.84C178.39,1.84,185.19.94,192,0h29c1.07.28,2.13.65,3.22.83,12.45,2.11,25.07,3.52,37.33,6.44,16.87,4,32.71,11,47.77,19.63a206.74,206.74,0,0,1,56.26,47.17,200.48,200.48,0,0,1,31.27,51.25,193.7,193.7,0,0,1,13.29,46.29c1,6.78,1.89,13.58,2.84,20.37v29c-.28,1.07-.65,2.13-.83,3.22-2.11,12.46-3.52,25.07-6.44,37.33-4,16.87-11,32.71-19.64,47.77a206.52,206.52,0,0,1-47.16,56.26,200.48,200.48,0,0,1-51.25,31.27,193.7,193.7,0,0,1-46.29,13.29c-6.78,1-13.58,1.89-20.37,2.84H192c-1.08-.28-2.13-.65-3.22-.83-12.46-2.11-25.07-3.52-37.33-6.44-16.87-4-32.71-11-47.77-19.64A206.52,206.52,0,0,1,47.4,338.88a200.79,200.79,0,0,1-31.28-51.25A193.68,193.68,0,0,1,2.84,241.34C1.84,234.56.94,227.76,0,221Zm371.8-14.46C371.28,114.27,298,43.83,212.38,41.31c-98.29-2.9-168.74,74.86-171.11,159.38-2.74,98.09,75,168.78,160,171C297.83,374.27,371.78,296.54,371.8,206.51Z"/><path d="M84.22,182.7l33.17-33,87.49,87.32,2.72,1.41,84.84-89.29L326.37,183c-.33.37-1.11,1.37-2,2.26Q266.79,242.88,209.24,300.5c-2.64,2.65-4.36,3.21-7.29.27Q144,242.53,85.78,184.46C85.19,183.88,84.68,183.23,84.22,182.7Z"/></g></g></svg>