<svg xmlns="http://www.w3.org/2000/svg" viewBox="0 0 339.6 301.5"><defs></defs><title>88</title><g id="圖層_2" data-name="圖層 2"><g id="分離模式"><path d="M169.8,0C76.2,0,0,67.6,0,150.7c0,31.6,11.3,62.5,31.9,88a46.79,46.79,0,0,1-15.3,16.8,19,19,0,0,0,7.7,34.7,113.4,113.4,0,0,0,16.5,1.1,103.2,103.2,0,0,0,44.8-9.7,186.39,186.39,0,0,0,84.2,19.9c93.6,0,169.8-67.6,169.8-150.7S263.4,0,169.8,0Zm0,271.9a156.31,156.31,0,0,1-77-19.9l-7.5-4.3-7.4,4.4a67.93,67.93,0,0,1-25.4,8.8,79.42,79.42,0,0,0,10.4-19.8l3.1-8.5L59.9,226c-20-21.7-30.6-47.8-30.6-75.5,0-66.9,63-121.2,140.4-121.2S310.2,83.8,310.2,150.7,247.2,271.9,169.8,271.9Z"/><path d="M174.6,117.3c10.2.1,18.6-8.4,18.7-18.8a18.8,18.8,0,1,0-37.6-.3A19.12,19.12,0,0,0,174.6,117.3Z"/><path d="M197.1,202.6c-1.8.7-3.5,2-5.3,2.7a29.34,29.34,0,0,1-7,2,5,5,0,0,1-5.7-4,20.51,20.51,0,0,1-.6-6.5c.5-4.5,1.4-8.9,2.2-13.4,2.4-13.4,5-26.8,7.3-40.3a57.88,57.88,0,0,0,1.2-11c-.1-4.4-2.7-6.5-7.1-6.5H146.5a31.08,31.08,0,0,0-4.3.3c-2.7.5-4,1.8-4.2,3.9-.2,1.9.8,3.8,3.3,4.7a32.36,32.36,0,0,0,6.2,1.2c4.8.7,6.4,2.4,6.4,7.3a17.85,17.85,0,0,1-.2,2.3c-2,11.8-4.2,23.5-6.2,35.3-1.1,6.8-2.2,13.5-3.1,20.3-1.4,9.9,8.2,19.3,15.7,20.3a89.21,89.21,0,0,0,13.7.7c9.8-.1,18-4.3,24.9-11.2a10.25,10.25,0,0,0,2.6-4.5C202.1,203.4,199.9,201.5,197.1,202.6Z"/></g></g></svg>