<svg version="1.1" xmlns="http://www.w3.org/2000/svg" style="display:none;"><symbol id="about" null><g data-name="圖層 2"><g data-name="圖層 1"><path d="M204.63 132.51a47.13 47.13 0 1 0-74 0c-24.69 17.92-26.18 43.65-26.18 51.2v24.09a15 15 0 0 0 15 15h96.4a15 15 0 0 0 15-15v-24.1a63.14 63.14 0 0 0-26.22-51.19zm-37-46.28a17.14 17.14 0 1 1-17.13 17.14 17.16 17.16 0 0 1 17.13-17.14zm33.2 106.57h-66.4v-9.12a33.2 33.2 0 0 1 66.4 0z"/><path d="M280.1 0H55.16A55.23 55.23 0 0 0 0 55.17v265.1a15 15 0 0 0 25.61 10.6l43.8-43.8H280.1a55.16 55.16 0 0 0 55.17-55.17V55.17A55.23 55.23 0 0 0 280.1 0zm25.17 231.9a25 25 0 0 1-7.37 17.79 25.36 25.36 0 0 1-17.8 7.38H63.2a15 15 0 0 0-10.61 4.39L30 284.05V55.17A25.19 25.19 0 0 1 55.16 30H280.1a25.2 25.2 0 0 1 25.17 25.17z"/></g></g></symbol><symbol id="activity" null><g data-name="圖層 2"><path d="M102.66 30.4a4 4 0 0 0-4-3.4h-23v-9.4a17.6 17.6 0 1 0-35.2 0V27h-23a4 4 0 0 0-4 3.4l-13.4 81a3.93 3.93 0 0 0 .9 3.3 4.1 4.1 0 0 0 3.1 1.4h108.1a4.06 4.06 0 0 0 4.1-4.1 5.07 5.07 0 0 0-.2-1.3zm-54-12.8a9.4 9.4 0 1 1 18.8 0V27h-18.8zM8.86 108L21 35.2h19.5v22.9a4.1 4.1 0 1 0 8.2 0V35.2h18.8v22.9a4.1 4.1 0 1 0 8.2 0V35.2h19.5l12.1 72.8z" data-name="圖層 1"/></g></symbol><symbol id="collapse" null><g data-name="圖層 2"><g data-name="圖層 1"><path d="M0 221v-29c.28-1.08.65-2.13.83-3.22 2.11-12.46 3.52-25.07 6.44-37.33 4-16.87 11-32.71 19.63-47.77A206.74 206.74 0 0 1 74.07 47.4a200.79 200.79 0 0 1 51.25-31.28 193.68 193.68 0 0 1 46.29-13.28c6.78-1 13.58-1.9 20.39-2.84h29c1.07.28 2.13.65 3.22.83 12.45 2.11 25.07 3.52 37.33 6.44 16.87 4 32.71 11 47.77 19.63a206.74 206.74 0 0 1 56.26 47.17 200.48 200.48 0 0 1 31.27 51.25 193.7 193.7 0 0 1 13.29 46.29c1 6.78 1.89 13.58 2.84 20.37v29c-.28 1.07-.65 2.13-.83 3.22-2.11 12.46-3.52 25.07-6.44 37.33-4 16.87-11 32.71-19.64 47.77a206.52 206.52 0 0 1-47.16 56.26 200.48 200.48 0 0 1-51.25 31.27 193.7 193.7 0 0 1-46.29 13.29c-6.78 1-13.58 1.89-20.37 2.84h-29c-1.08-.28-2.13-.65-3.22-.83-12.46-2.11-25.07-3.52-37.33-6.44-16.87-4-32.71-11-47.77-19.64a206.52 206.52 0 0 1-56.28-47.17 200.79 200.79 0 0 1-31.28-51.25 193.68 193.68 0 0 1-13.28-46.29C1.84 234.56.94 227.76 0 221zm371.8-14.46c-.52-92.27-73.8-162.71-159.42-165.23-98.29-2.9-168.74 74.86-171.11 159.38-2.74 98.09 75 168.78 160 171 96.56 2.58 170.51-75.15 170.53-165.18z"/><path d="M84.22 182.7l33.17-33 87.49 87.32 2.72 1.41 84.84-89.29L326.37 183c-.33.37-1.11 1.37-2 2.26q-57.58 57.62-115.13 115.24c-2.64 2.65-4.36 3.21-7.29.27Q144 242.53 85.78 184.46c-.59-.58-1.1-1.23-1.56-1.76z"/></g></g></symbol><symbol id="company" viewBox="0 0 192 320"><g data-name="圖層 2"><g data-name="Capa 1"><path d="M181.33 0H10.67A10.67 10.67 0 0 0 0 10.67v298.66A10.67 10.67 0 0 0 10.67 320h170.66A10.67 10.67 0 0 0 192 309.33V10.67A10.67 10.67 0 0 0 181.33 0zM128 298.67H64v-21.34h64zm42.67 0h-21.34v-32A10.67 10.67 0 0 0 138.67 256H53.33a10.67 10.67 0 0 0-10.66 10.67v32H21.33V21.33h149.34z"/><path d="M42.67 42.67H64v192H42.67z"/><path class="cls-1" d="M85.33 42.67h21.33v192H85.33z"/><path d="M128 42.67h21.33v192H128z"/></g></g></symbol><symbol id="contact" null><g data-name="圖層 2"><path d="M169.8 0C76.2 0 0 67.6 0 150.7c0 31.6 11.3 62.5 31.9 88a46.79 46.79 0 0 1-15.3 16.8 19 19 0 0 0 7.7 34.7 113.4 113.4 0 0 0 16.5 1.1 103.2 103.2 0 0 0 44.8-9.7 186.39 186.39 0 0 0 84.2 19.9c93.6 0 169.8-67.6 169.8-150.7S263.4 0 169.8 0zm0 271.9a156.31 156.31 0 0 1-77-19.9l-7.5-4.3-7.4 4.4a67.93 67.93 0 0 1-25.4 8.8 79.42 79.42 0 0 0 10.4-19.8l3.1-8.5-6.1-6.6c-20-21.7-30.6-47.8-30.6-75.5 0-66.9 63-121.2 140.4-121.2s140.5 54.5 140.5 121.4-63 121.2-140.4 121.2z"/><path d="M174.6 117.3c10.2.1 18.6-8.4 18.7-18.8a18.8 18.8 0 1 0-37.6-.3 19.12 19.12 0 0 0 18.9 19.1zM197.1 202.6c-1.8.7-3.5 2-5.3 2.7a29.34 29.34 0 0 1-7 2 5 5 0 0 1-5.7-4 20.51 20.51 0 0 1-.6-6.5c.5-4.5 1.4-8.9 2.2-13.4 2.4-13.4 5-26.8 7.3-40.3a57.88 57.88 0 0 0 1.2-11c-.1-4.4-2.7-6.5-7.1-6.5h-35.6a31.08 31.08 0 0 0-4.3.3c-2.7.5-4 1.8-4.2 3.9-.2 1.9.8 3.8 3.3 4.7a32.36 32.36 0 0 0 6.2 1.2c4.8.7 6.4 2.4 6.4 7.3a17.85 17.85 0 0 1-.2 2.3c-2 11.8-4.2 23.5-6.2 35.3-1.1 6.8-2.2 13.5-3.1 20.3-1.4 9.9 8.2 19.3 15.7 20.3a89.21 89.21 0 0 0 13.7.7c9.8-.1 18-4.3 24.9-11.2a10.25 10.25 0 0 0 2.6-4.5c.8-2.8-1.4-4.7-4.2-3.6z"/></g></symbol><symbol id="service" viewBox="0 0 512 390"><g data-name="圖層 2"><g data-name="Capa 1"><path d="M497 180h-45a15 15 0 0 0 0 30h45a15 15 0 0 0 0-30zM477.61 274.39l-30-30a15 15 0 0 0-21.22 21.22l30 30a15 15 0 0 0 21.22-21.22zM477.61 94.39a15 15 0 0 0-21.22 0l-30 30a15 15 0 0 0 21.22 21.22l30-30a15 15 0 0 0 0-21.22zM347 0a45.08 45.08 0 0 0-44.5 38.28L288.82 52C265 75.78 229.93 90 195 90h-90a45.06 45.06 0 0 0-42.42 30H60a60 60 0 0 0 0 120h2.58A45.25 45.25 0 0 0 90 267.42V345a45 45 0 0 0 90 0v-75h15c34.93 0 70 14.22 93.82 38l13.68 13.69A45 45 0 0 0 392 315V45a45.05 45.05 0 0 0-45-45zM60 210a30 30 0 0 1 0-60zm90 135a15 15 0 0 1-30 0v-75h30zm30-105h-75a15 15 0 0 1-15-15v-90a15 15 0 0 1 15-15h75zm122 39.35c-25.34-21.94-57.92-35.56-92.1-38.67V119.32c34.18-3.11 66.76-16.73 92.1-38.67zM362 315a15 15 0 0 1-15 15 15 15 0 0 1-15-15V45a15 15 0 0 1 30 0z"/></g></g></symbol></svg>